<?xml version="1.0" standalone="yes"?>
<svg xmlns="http://www.w3.org/2000/svg" width="640" height="640">
<path style="fill:#070404; stroke:none;" d="M0 0L0 640L640 640L640 0L0 0z"/>
<path style="fill:#b8555b; stroke:none;" d="M293 38L293 39L302 39L293 38z"/>
<path style="fill:#b1911b; stroke:none;" d="M190 80C195.995 82.4961 207.691 86.188 210.972 92.1049C214.618 98.6792 212.393 109.722 213 117C229.05 109.049 242.8 98.3725 260 92.3449C302.713 77.3767 348.603 80.0914 390 97.8727C401.823 102.951 411.844 110.789 423 117L425.179 94.2137L448 81C435.965 67.4511 413.71 58.4977 397 52.3187C348.358 34.3312 295.214 32.9708 246 49.831C228.248 55.9125 202.135 65.0953 190 80z"/>
<path style="fill:#b8555b; stroke:none;" d="M335 38L335 39L344 39L335 38M287 39L287 40L290 40L287 39M347.667 39.3333L348.333 39.6667L347.667 39.3333M280 40L280 41L284 41L280 40M354 40L354 41L357 41L354 40M275 41L275 42L278 42L275 41M359.667 41.3333L360.333 41.6667L359.667 41.3333M270.667 42.3333L271.333 42.6667L270.667 42.3333M363 42L363 43L367 43L363 42M266.667 43.3333L267.333 43.6667L266.667 43.3333M368.667 43.3333L369.333 43.6667L368.667 43.3333M261 44L261 45L264 45L261 44M372.667 44.3333L373.333 44.6667L372.667 44.3333M258.667 45.3333L259.333 45.6667L258.667 45.3333M376.667 45.3333L377.333 45.6667L376.667 45.3333M255.667 46.3333L256.333 46.6667L255.667 46.3333M379.667 46.3333L380.333 46.6667L379.667 46.3333M251.667 47.3333L252.333 47.6667L251.667 47.3333M384 47L385 48L384 47M248.667 48.3333L249.333 48.6667L248.667 48.3333M386.667 48.3333L387.333 48.6667L386.667 48.3333M245 49L245 50L248 50L245 49M389.667 49.3333L390.333 49.6667L389.667 49.3333M243 50L244 51L243 50M392.667 50.3333L393.333 50.6667L392.667 50.3333M240.667 51.3333L241.333 51.6667L240.667 51.3333M394 51L394 52L397 52L394 51M237.667 52.3333L238.333 52.6667L237.667 52.3333M397.667 52.3333L398.333 52.6667L397.667 52.3333M235.667 53.3333L236.333 53.6667L235.667 53.3333M400.667 53.3333L401.333 53.6667L400.667 53.3333M232.667 54.3333L233.333 54.6667L232.667 54.3333M402.667 54.3333L403.333 54.6667L402.667 54.3333M230.667 55.3333L231.333 55.6667L230.667 55.3333M405 55L406 56L405 55M228 56L229 57L228 56M407 56L408 57L407 56M226.667 57.3333L227.333 57.6667L226.667 57.3333M409.667 57.3333L410.333 57.6667L409.667 57.3333M224 58L225 59L224 58M411.667 58.3333L412.333 58.6667L411.667 58.3333M221.667 59.3333L222.333 59.6667L221.667 59.3333M413.667 59.3333L414.333 59.6667L413.667 59.3333M219.667 60.3333L220.333 60.6667L219.667 60.3333M415.667 60.3333L416.333 60.6667L415.667 60.3333M217.667 61.3333L218.333 61.6667L217.667 61.3333M418 61L419 62L418 61M216 62L217 63L216 62M419.667 62.3333L420.333 62.6667L419.667 62.3333M214 63L215 64L214 63M421 63L422 64L421 63M212 64L213 65L212 64M424 64L425 65L424 64M210 65L211 66L210 65M425 65L426 66L425 65M208.667 66.3333L209.333 66.6667L208.667 66.3333M427 66L428 67L427 66M206.667 67.3333L207.333 67.6667L206.667 67.3333M428.667 67.3333L429.333 67.6667L428.667 67.3333M205 68L206 69L205 68M430.667 68.3333L431.333 68.6667L430.667 68.3333M203 69L204 70L203 69M432 69L433 70L432 69M202 70L203 71L202 70M433.667 70.3333L434.333 70.6667L433.667 70.3333M200 71L201 72L200 71M435 71L436 72L435 71M198 72L199 73L198 72M437 72L438 73L437 72M197 73L198 74L197 73M438.667 73.3333L439.333 73.6667L438.667 73.3333M195 74L196 75L195 74M440 74L441 75L440 74M194 75L195 76L194 75M441 75L442 76L441 75M192.667 76.3333L193.333 76.6667L192.667 76.3333M443 76L444 77L443 76M191 77L192 78L191 77M444 77L445 78L444 77M190 78L191 79L190 78M445.667 78.3333L446.333 78.6667L445.667 78.3333M189 79L190 80L189 79M447 79L448 80L447 79M190.667 80.3333L191.333 80.6667L190.667 80.3333M448 80L449 81L448 80M192.667 81.3333L193.333 81.6667L192.667 81.3333M447 81L448 82L447 81M194.667 82.3333L195.333 82.6667L194.667 82.3333M311 82L311 83L325 83L311 82M445.667 82.3333L446.333 82.6667L445.667 82.3333M196.667 83.3333L197.333 83.6667L196.667 83.3333M299 83L299 84L304 84L299 83M332 83L332 84L336 84L332 83M443.667 83.3333L444.333 83.6667L443.667 83.3333M198.667 84.3333L199.333 84.6667L198.667 84.3333M290 84L290 85L295 85L290 84M341 84L341 85L345 85L341 84M441.667 84.3333L442.333 84.6667L441.667 84.3333M200.667 85.3333L201.333 85.6667L200.667 85.3333M285 85L285 86L288 86L285 85M348 85L348 86L351 86L348 85M439.667 85.3333L440.333 85.6667L439.667 85.3333M202.667 86.3333L203.333 86.6667L202.667 86.3333M280 86L280 87L283 87L280 86M354.667 86.3333L355.333 86.6667L354.667 86.3333M437.667 86.3333L438.333 86.6667L437.667 86.3333M204.667 87.3333L205.333 87.6667L204.667 87.3333M276.667 87.3333L277.333 87.6667L276.667 87.3333M357 87L357 88L360 88L357 87M435.667 87.3333L436.333 87.6667L435.667 87.3333M207 88L208 89L207 88M272.667 88.3333L273.333 88.6667L272.667 88.3333M362 88L362 89L365 89L362 88M433 88L434 89L433 88M208.667 89.3333L209.333 89.6667L208.667 89.3333M268 89L268 90L271 90L268 89M365.667 89.3333L366.333 89.6667L365.667 89.3333M210 90L211 91L210 90M265.667 90.3333L266.333 90.6667L265.667 90.3333M369 90L369 91L372 91L369 90M429.667 90.3333L430.333 90.6667L429.667 90.3333M211.333 91.6667L211.667 92.3333L211.333 91.6667M262.667 91.3333L263.333 91.6667L262.667 91.3333M372.667 91.3333L373.333 91.6667L372.667 91.3333M427 91L428 92L427 91M191 92L191 93L196 93L191 92M259.667 92.3333L260.333 92.6667L259.667 92.3333M376 92L377 93L376 92M425.667 92.3333L426.333 92.6667L425.667 92.3333M444 92L444 93L449 93L444 92M188.667 93.3333L189.333 93.6667L188.667 93.3333z"/>
<path style="fill:#b1911b; stroke:none;" d="M190.04 93.5733C177.392 97.3237 184.234 116.321 196.907 112.427C208.843 108.759 202.717 89.8144 190.04 93.5733z"/>
<path style="fill:#b8555b; stroke:none;" d="M197.667 93.3333L198.333 93.6667L197.667 93.3333M256.667 93.3333L257.333 93.6667L256.667 93.3333M378.667 93.3333L379.333 93.6667L378.667 93.3333M442 93L443 94L442 93z"/>
<path style="fill:#b1911b; stroke:none;" d="M443.015 93.743C430.434 98.6353 438.22 117.416 450.957 112.258C462.666 107.515 454.737 89.1849 443.015 93.743z"/>
<path style="fill:#b8555b; stroke:none;" d="M450.667 93.3333L451.333 93.6667L450.667 93.3333M186 94L187 95L186 94M254.667 94.3333L255.333 94.6667L254.667 94.3333M380.667 94.3333L381.333 94.6667L380.667 94.3333M424 94L424 101L425 101L424 94M440 94L441 95L440 94M452.667 94.3333L453.333 94.6667L452.667 94.3333M185 95L184 98L185 95M252 95L253 96L252 95M383 95L384 96L383 95M439 95L440 96L439 95M249.667 96.3333L250.333 96.6667L249.667 96.3333M386 96L387 97L386 96M438 96L439 97L438 96M454 96L456 98L456 96L454 96M202 97L203 98L202 97M247 97L248 98L247 97M388.667 97.3333L389.333 97.6667L388.667 97.3333M437.333 97.6667L437.667 98.3333L437.333 97.6667M245 98L246 99L245 98M390.667 98.3333L391.333 98.6667L390.667 98.3333M183 99L184 100L183 99M203 99L203 103L204 103L203 99M242.667 99.3333L243.333 99.6667L242.667 99.3333M392.667 99.3333L393.333 99.6667L392.667 99.3333M436 99L436 102L437 102L436 99M456 99L457 100L456 99M240.667 100.333L241.333 100.667L240.667 100.333M394.667 100.333L395.333 100.667L394.667 100.333M238.667 101.333L239.333 101.667L238.667 101.333M396.667 101.333L397.333 101.667L396.667 101.333M212 102L212 112L213 112L212 102M236.667 102.333L237.333 102.667L236.667 102.333M398.667 102.333L399.333 102.667L398.667 102.333M235 103L236 104L235 103M400.667 103.333L401.333 103.667L400.667 103.333M457 103L458 104L457 103M203 104L203 107L204 107L203 104M233 104L234 105L233 104M402.667 104.333L403.333 104.667L402.667 104.333M404 105L405 106L404 105M436.333 105.667L436.667 106.333L436.333 105.667M183 106L184 107L183 106M229.667 106.333L230.333 106.667L229.667 106.333M405.667 106.333L406.333 106.667L405.667 106.333M456.333 106.667L456.667 107.333L456.333 106.667M202.333 107.667L202.667 108.333L202.333 107.667M228 107L229 108L228 107M407 107L408 108L407 107M184.333 108.667L184.667 109.333L184.333 108.667M226 108L227 109L226 108M409 108L410 109L409 108M437 108L438 109L437 108M455.333 108.667L455.667 109.333L455.333 108.667M201 109L202 110L201 109M224.667 109.333L225.333 109.667L224.667 109.333M411 109L412 110L411 109M185 110L186 111L185 110M200.333 110.667L200.667 111.333L200.333 110.667M223 110L224 111L223 110M412 110L413 111L412 110M454 110L455 111L454 110M186 111L187 112L186 111M222 111L223 112L222 111M414 111L415 112L414 111M453 111L454 112L453 111M170 112L170 113L174 113L170 112M188.667 112.333L189.333 112.667L188.667 112.333M197.667 112.333L198.333 112.667L197.667 112.333M220 112L221 113L220 112M415 112L416 113L415 112M423 112L422 118L423 112M441 112L442 113L441 112M451 112L452 113L451 112M467.667 112.333L468.333 112.667L467.667 112.333M161 125L162 125C162.449 120.053 164.019 117.006 168 114C162.423 113.88 161.21 120.482 161 125z"/>
<path style="fill:#b1911b; stroke:none;" d="M168.019 113.742C156.75 118.199 163.306 136.872 174.996 132.812C187.686 128.405 180.762 108.702 168.019 113.742z"/>
<path style="fill:#b8555b; stroke:none;" d="M176 113L177 114L176 113M192 113L192 114L196 114L192 113M212 113L212 116L213 116L212 113M218 113L219 114L218 113M417 113L418 114L417 113M445 113L445 114L449 114L445 113M462 114L462 115L466 114L462 114z"/>
<path style="fill:#b1911b; stroke:none;" d="M466.004 113.549C453.318 116.273 457.29 136.41 469.999 133.387C482.404 130.437 478.663 110.83 466.004 113.549z"/>
<path style="fill:#b8555b; stroke:none;" d="M471 113L472 114L471 113M178 114L179 115L178 114M217 114L218 115L217 114M418 114L419 115L418 114M473 114L474 115L473 114M179 115L180 116L179 115M216 115L217 116L216 115M419.667 115.333L420.333 115.667L419.667 115.333M460 115L461 116L460 115M474.667 115.333L475.333 115.667L474.667 115.333M180 116L181 117L180 116M214.667 116.333L215.333 116.667L214.667 116.333M421 116L422 117L421 116M459.333 116.667L459.667 117.333L459.333 116.667M213 117L214 118L213 117M476 117L477 118L476 117M181.333 118.667L181.667 119.333L181.333 118.667M458 118L459 119L458 118M477.333 118.667L477.667 119.333L477.333 118.667M182 120L182 125L183 125L182 120M457 120L457 126L458 126L457 120M478 122L478 126L479 126L478 122M162.333 127.667L162.667 128.333L162.333 127.667M181 127L182 128L181 127M477.333 127.667L477.667 128.333L477.333 127.667M458 128L459 129L458 128M163 129L164 130L163 129M180 129L181 130L180 129M459 129L460 130L459 129M476 129L477 130L476 129M164 130L165 131L164 130M179 130L180 131L179 130M475 130L476 131L475 130M165 131L166 132L165 131M178 131L179 132L178 131M461 131L462 132L461 131M474 131L475 132L474 131M166.667 132.333L167.333 132.667L166.667 132.333M176 132L177 133L176 132M462 132L463 133L462 132M473 132L474 133L473 132M169.667 133.333L170.333 133.667L169.667 133.333M173.667 133.333L174.333 133.667L173.667 133.333M464.667 133.333L465.333 133.667L464.667 133.333M470.667 133.333L471.333 133.667L470.667 133.333M202 134L202 135L256 135L238 134L202 134M147 137L150 136L147 137z"/>
<path style="fill:#b1911b; stroke:none;" d="M150.005 135.657C137.662 139.424 144.042 159.362 155.996 155.091C168.076 150.776 162.671 131.791 150.005 135.657z"/>
<path style="fill:#b8555b; stroke:none;" d="M156.667 135.333L157.333 135.667L156.667 135.333z"/>
<path style="fill:#b1911b; stroke:none;" d="M200 135L200 144L201 144L201 136L232.961 136.148L248 141C247.795 146.219 251.566 145.371 255 148L256 148L258 142L257 144L258 144L272 149L272 152L277 152L277 153L275 153L275 154L285 153L282 155L282 156L296 157L296 158L263 159L263 160C285.759 160 310.697 157.271 333 162.428C348.857 166.095 359 175.657 359 192L360 192L360 187L366 189L367 189L368 189L368 187L392 197C395.231 195.813 397.279 197.164 399 200L401 198L402 198L401 203L404 201L398 208C407.503 210.039 408.241 188.769 407.96 183C407.162 166.604 392.471 155.354 379 148.602C351.722 134.93 321.741 135 292 135L200 135z"/>
<path style="fill:#b8555b; stroke:none;" d="M326 135L326 136L333 136L326 135M483 135L483 136L490 136L483 135M158.667 136.333L159.333 136.667L158.667 136.333M199 136L199 273L200 273L200 177C200 165.318 203.507 146.742 199 136z"/>
<path style="fill:#ddb358; stroke:none;" d="M201 136C200.567 188.328 195.42 242.939 202 295L203 295L206 293L206 299L207 299L207 291L208 291L208 294C215.289 294.15 223.024 294.197 228 300L248 302C251.519 306.028 268.182 308.562 273 306L273 310L274 310L275 310L274 308L275 308L279 310L279 309C274.68 305.706 270.221 298.234 264.985 296.889C260.629 295.769 252.126 299.433 248.777 295.397C245.869 291.892 250.566 274.03 250.91 269C251.346 262.639 247.875 246.331 252.603 241.603C257.584 236.622 277.634 239.898 284 241.049C306.932 245.196 332.22 235.4 351.532 253.888C362.742 264.62 356.274 281.632 344 288C344 296.422 356.434 300.217 362 303C365.342 304.671 371.854 310.382 376 309C387.633 305.122 403.14 291.581 407 280C412.413 263.762 404.861 246.884 393 237C390.717 235.098 377 230.214 377 227C377 225.689 381.124 223.438 382 223C386.018 220.991 402.25 209.85 398 209L398 208L404 201L401 203L402 198L401 198L399 200C398.119 196.976 394.463 194.089 392 197C387.576 194.889 371.604 185.651 368 189L367 189L366 189L360 187C357.237 220.785 303.919 214 281 214C273.952 214 258.271 216.945 252.318 212.972C249.063 210.8 250 205.341 250 202C249.999 192.334 250.046 182.666 249.999 173C249.983 169.672 248.103 163.256 251.333 161.028C254.086 159.129 258.824 160.089 262 159.715C273.15 158.399 284.781 158.482 296 158L296 157L282 156L282 155L285 153L275 154L275 153L277 153L277 152L272 152L272 149L257 144L258 142L256 148L255 148L248 141L233.91 136.148L201 136z"/>
<path style="fill:#b8555b; stroke:none;" d="M336 136L337 137L336 136M338 136L338 137L342 137L338 136M481 136L482 137L481 136z"/>
<path style="fill:#b1911b; stroke:none;" d="M482.043 136.742C470.461 141.432 478.634 159.612 489.995 155.257C502.816 150.343 494.511 131.694 482.043 136.742z"/>
<path style="fill:#b8555b; stroke:none;" d="M491 136L492 137L491 136M145 137L146 138L145 137M160 137L161 138L160 137M343 137L343 138L347 138L343 137M479 137L480 138L479 137M492.667 137.333L493.333 137.667L492.667 137.333M144 138L145 139L144 138M161 138L162 139L161 138M349 138L349 139L352 139L349 138M478 138L479 139L478 138M494.333 138.667L494.667 139.333L494.333 138.667M353 139L353 140L356 140L353 139M162 140L163 141L162 140M357 140L357 141L360 141L357 140M477 140L478 141L477 140M495 140L496 141L495 140M143 141L144 142L143 141M360 141L360 142L363 142L360 141M163 142L163 148L164 148L163 142M363.667 142.333L364.333 142.667L363.667 142.333M476 142L477 143L476 142M496.333 142.667L496.667 143.333L496.333 142.667z"/>
<path style="fill:#b1911b; stroke:none;" d="M241 143L242 144L241 143M243 143L244 144L243 143M245 143L246 144L245 143z"/>
<path style="fill:#ddb358; stroke:none;" d="M248 143L248 144L255 144L255 143L248 143z"/>
<path style="fill:#b8555b; stroke:none;" d="M367 143L368 144L367 143M142 144L142 148L143 148L142 144M370 144L371 145L370 144M372.667 145.333L373.333 145.667L372.667 145.333M374.667 146.333L375.333 146.667L374.667 146.333M376.667 147.333L377.333 147.667L376.667 147.333M379 148L380 149L379 148M476.333 148.667L476.667 149.333L476.333 148.667M496.333 148.667L496.667 149.333L496.333 148.667M143 149L144 150L143 149M162 149L163 150L162 149M380.667 149.333L381.333 149.667L380.667 149.333z"/>
<path style="fill:#ddb358; stroke:none;" d="M281 151L281 152L285 150L281 151z"/>
<path style="fill:#b8555b; stroke:none;" d="M382.667 150.333L383.333 150.667L382.667 150.333M477.333 150.667L477.667 151.333L477.333 150.667M144 151L145 152L144 151M161 151L162 152L161 151M384 151L385 152L384 151M495 151L496 152L495 151M145 152L146 153L145 152M160 152L161 153L160 152M386 152L387 153L386 152M478 152L479 153L478 152M494 152L493 154L495 154L494 152M146 153L147 154L146 153M159 153L160 154L159 153M387 153L388 154L387 153M479 153L480 154L479 153M147.667 154.333L148.333 154.667L147.667 154.333M158 154L159 155L158 154M389 154L390 155L389 154M480 154L481 155L480 154M492 154L493 155L492 154M149.667 155.333L150.333 155.667L149.667 155.333M155.667 155.333L156.333 155.667L155.667 155.333M390 155L391 156L390 155M482 155L483 156L482 155M490.667 155.333L491.333 155.667L490.667 155.333z"/>
<path style="fill:#b1911b; stroke:none;" d="M272 156L272 157L280 157L272 156z"/>
<path style="fill:#b8555b; stroke:none;" d="M392 156L393 157L392 156M484 156L484 157L489 157L484 156M393 157L394 158L393 157M394 158L395 159L394 158M395 159L396 160L395 159M135 160L135 161C144.583 161.225 147.974 165.812 148 175C152.161 165.081 143.762 160.078 135 160z"/>
<path style="fill:#b1911b; stroke:none;" d="M250 160L249 162L250 160z"/>
<path style="fill:#b8555b; stroke:none;" d="M249 163L273 161L318 161C313.031 158.915 306.35 160 301 160L266 160C260.234 160 253.3 158.609 249 163z"/>
<path style="fill:#ddb358; stroke:none;" d="M340 160L341 161L340 160z"/>
<path style="fill:#b8555b; stroke:none;" d="M396 160L397 161L396 160M133 161L132 163L133 161z"/>
<path style="fill:#b1911b; stroke:none;" d="M134.105 161.858C122.237 167.164 131.456 185.824 142.981 179.821C153.923 174.122 145.855 156.605 134.105 161.858z"/>
<path style="fill:#070404; stroke:none;" d="M251.643 162.028C249.301 164.02 250.986 170.256 250.999 173C251.046 182.666 250.999 192.334 251 202C251 205.037 249.964 210.746 253.318 212.397C259.522 215.449 272.127 213 279 213C301.631 213 333.663 218.368 351.985 201.815C364.62 190.399 357.699 173.285 344 166.633C323.739 156.796 296.867 161 275 161C269.743 161 255.766 158.518 251.643 162.028z"/>
<path style="fill:#b8555b; stroke:none;" d="M325 161L325 162L329 162L325 161z"/>
<path style="fill:#ddb358; stroke:none;" d="M336 161L337 162L336 161z"/>
<path style="fill:#b8555b; stroke:none;" d="M397 161L398 162L397 161M495 162L495 163L499 162L495 162z"/>
<path style="fill:#b1911b; stroke:none;" d="M499.004 161.657C486.361 164.37 489.967 184.151 502.985 181.3C515.494 178.561 511.388 158.998 499.004 161.657z"/>
<path style="fill:#b8555b; stroke:none;" d="M503.667 161.333L504.333 161.667L503.667 161.333M331 162L331 163L334 163L331 162M398 162L399 163L398 162M505.667 162.333L506.333 162.667L505.667 162.333z"/>
<path style="fill:#b1911b; stroke:none;" d="M249 163L249 166L250 166L249 163z"/>
<path style="fill:#b8555b; stroke:none;" d="M336.667 163.333L337.333 163.667L336.667 163.333M399 163L400 164L399 163M493 163L494 164L493 163M507 163L508 164L507 163M130 164L131 165L130 164M338.667 164.333L339.333 164.667L338.667 164.333z"/>
<path style="fill:#ddb358; stroke:none;" d="M343 164L344 165L343 164z"/>
<path style="fill:#b8555b; stroke:none;" d="M400 164L401 165L400 164M492.333 164.667L492.667 165.333L492.333 164.667M508 164L509 165L508 164M129.333 165.667L129.667 166.333L129.333 165.667M250 165L250 168L251 168L250 165M341.667 165.333L342.333 165.667L341.667 165.333M401 165L402 166L401 165M509 165L510 166L509 165M491 166L492 167L491 166M128.333 167.667L128.667 168.333L128.333 167.667M345.667 167.333L346.333 167.667L345.667 167.333M402 167L403 168L402 167M510 167L511 168L510 167z"/>
<path style="fill:#b1911b; stroke:none;" d="M250 168C250 182.179 246.982 200.406 251 214L252 214L250 168z"/>
<path style="fill:#b8555b; stroke:none;" d="M347 168L348 169L347 168M403 168L404 169L403 168M490 168L490 176L491 176L490 168M349 169L350 170L349 169M404.333 169.667L404.667 170.333L404.333 169.667M350 170L351 171L350 170M351 171L352 172L351 171M352 172L353 173L352 172z"/>
<path style="fill:#ddb358; stroke:none;" d="M354 172L356 174L356 172L354 172z"/>
<path style="fill:#b8555b; stroke:none;" d="M405 172L406 173L405 172M128.333 173.667L128.667 174.333L128.333 173.667M353 173L354 174L353 173M354 174L355 175L354 174M406.333 174.667L406.667 175.333L406.333 174.667M355 175L356 176L355 175M510.333 175.667L510.667 176.333L510.333 175.667M129 176L130 177L129 176M147 176L148 177L147 176M356 176L357 177L356 176z"/>
<path style="fill:#ddb358; stroke:none;" d="M358 176L359 177L358 176z"/>
<path style="fill:#b8555b; stroke:none;" d="M491 176L492 177L491 176M130 177L131 178L130 177M146 177L147 178L146 177M509 177L510 178L509 177M131 178L132 179L131 178M145 178L146 179L145 178M357 178L358 179L357 178z"/>
<path style="fill:#ddb358; stroke:none;" d="M359.333 178.667L359.667 179.333L359.333 178.667z"/>
<path style="fill:#b8555b; stroke:none;" d="M407 178L408 179L407 178M492 178L493 179L492 178M508 178L509 179L508 178M132 179L133 180L132 179M144 179L145 180L144 179M493 179L494 180L493 179M133.667 180.333L134.333 180.667L133.667 180.333M142.667 180.333L143.333 180.667L142.667 180.333M358 180L358 186L359 186L358 180M494.667 180.333L495.333 180.667L494.667 180.333M506.667 180.333L507.333 180.667L506.667 180.333M136 181L136 182L141 182L136 181M496.667 181.333L497.333 181.667L496.667 181.333M502 181L502 182L506 182L502 181M126.667 187.333L127.333 187.667L126.667 187.333M120 189L120 190L124 189L120 189z"/>
<path style="fill:#b1911b; stroke:none;" d="M124.04 188.654C112.154 192.512 117.99 212.131 129.999 208.067C142.812 203.732 136.879 184.486 124.04 188.654z"/>
<path style="fill:#b8555b; stroke:none;" d="M131 188L132 189L131 188M509 188L509 189L515 189L509 188M133 189L134 190L133 189M502 194L508 190L502 194z"/>
<path style="fill:#b1911b; stroke:none;" d="M508.005 189.742C495.227 194.682 503.669 213.218 515.957 208.258C527.578 203.567 519.78 185.19 508.005 189.742z"/>
<path style="fill:#b8555b; stroke:none;" d="M516 189L517 190L516 189M134 190L135 191L134 190M358 190L358 194L359 194L358 190M517 190L518 191L517 190M119 191L120 192L119 191M135 191L136 192L135 191M408.333 191.667L408.667 192.333L408.333 191.667M518.667 191.333L519.333 191.667L518.667 191.333M118 192L119 193L118 192M136 192L137 193L136 192z"/>
<path style="fill:#ddb358; stroke:none;" d="M403 192L403 196L404 196L403 192z"/>
<path style="fill:#b8555b; stroke:none;" d="M520.333 192.667L520.667 193.333L520.333 192.667z"/>
<path style="fill:#ddb358; stroke:none;" d="M406 193L405 197L406 197L406 193z"/>
<path style="fill:#b8555b; stroke:none;" d="M117.333 194.667L117.667 195.333L117.333 194.667M137 194L137 197L138 197L137 194z"/>
<path style="fill:#b1911b; stroke:none;" d="M358 194C354.92 199.936 350.002 204.144 344 207L344 208C349.463 206.256 358.879 200.602 358 194z"/>
<path style="fill:#b8555b; stroke:none;" d="M521 194L521 197L522 197L521 194M357 195L358 196L357 195z"/>
<path style="fill:#ddb358; stroke:none;" d="M400 195L400 198L401 198L400 195z"/>
<path style="fill:#b8555b; stroke:none;" d="M407 195L408 196L407 195M501.333 195.667L501.667 196.333L501.333 195.667M116 197L116 200L117 200L116 197M356 197L357 198L356 197z"/>
<path style="fill:#ddb358; stroke:none;" d="M403 197L404 198L403 197z"/>
<path style="fill:#b8555b; stroke:none;" d="M355 198L356 199L355 198M406.333 198.667L406.667 199.333L406.333 198.667M354 199L355 200L354 199z"/>
<path style="fill:#ddb358; stroke:none;" d="M404.333 199.667L404.667 200.333L404.333 199.667z"/>
<path style="fill:#b8555b; stroke:none;" d="M137.333 200.667L137.667 201.333L137.333 200.667M353 200L354 201L353 200M117.333 201.667L117.667 202.333L117.333 201.667M352 201L353 202L352 201M405 201L406 202L405 201M501.333 201.667L501.667 202.333L501.333 201.667M351 202L352 203L351 202M521 202L522 203L521 202M118.333 203.667L118.667 204.333L118.333 203.667M136 203L137 204L136 203M350 203L351 204L350 203M404 203L405 204L404 203M502.333 203.667L502.667 204.333L502.333 203.667M135 204L136 205L135 204M348 204L349 205L348 204z"/>
<path style="fill:#b1911b; stroke:none;" d="M400 204L401 205L400 204z"/>
<path style="fill:#b8555b; stroke:none;" d="M520.333 204.667L520.667 205.333L520.333 204.667M119 205L120 206L119 205M134 205L133 207L135 207L134 205M347 205L348 206L347 205M403 205L404 206L403 205M503 205L504 206L503 205M120 206L121 207L120 206M345 206L346 207L345 206M402 206L403 207L402 206M519 206L520 207L519 206M121 207L122 208L121 207M132 207L133 208L132 207M343 207L344 208L343 207M505 207L506 208L505 207M518 207L519 208L518 207M124.667 208.333L125.333 208.667L124.667 208.333M129.667 208.333L130.333 208.667L129.667 208.333M341 208L342 209L341 208z"/>
<path style="fill:#b1911b; stroke:none;" d="M342 208L343 209L342 208M395 208L396 209L395 208z"/>
<path style="fill:#b8555b; stroke:none;" d="M401 208L402 209L401 208M506.667 208.333L507.333 208.667L506.667 208.333M516 208L517 209L516 208M338.667 209.333L339.333 209.667L338.667 209.333z"/>
<path style="fill:#b1911b; stroke:none;" d="M340 209L341 210L340 209M392 209L394 212L392 209z"/>
<path style="fill:#b8555b; stroke:none;" d="M400 209L401 210L400 209M509 209L509 210L515 210L509 209M334.667 210.333L335.333 210.667L334.667 210.333z"/>
<path style="fill:#b1911b; stroke:none;" d="M336 210L336 211L339 211L336 210M398 210L388 220L400 210L398 210z"/>
<path style="fill:#b8555b; stroke:none;" d="M331.667 211.333L332.333 211.667L331.667 211.333z"/>
<path style="fill:#b1911b; stroke:none;" d="M333.667 211.333L334.333 211.667L333.667 211.333z"/>
<path style="fill:#b8555b; stroke:none;" d="M251 212L252 213L251 212M324 212L324 213L328 213L324 212z"/>
<path style="fill:#b1911b; stroke:none;" d="M328 212L328 213L332 213L328 212z"/>
<path style="fill:#b8555b; stroke:none;" d="M398 212L399 213L398 212M252 213L252 214L320 214L299 213L252 213z"/>
<path style="fill:#b1911b; stroke:none;" d="M320 213L320 214L325 214L320 213z"/>
<path style="fill:#b8555b; stroke:none;" d="M396 213L397 214L396 213M395 214L396 215L395 214M394 215L395 216L394 215M393 216L394 217L393 216M116 217L116 218L119 218L116 217z"/>
<path style="fill:#b1911b; stroke:none;" d="M119.001 217.573C106.234 219.164 108.141 238.666 120.999 237.693C133.837 236.721 132.276 215.917 119.001 217.573z"/>
<path style="fill:#b8555b; stroke:none;" d="M122.667 217.333L123.333 217.667L122.667 217.333M392 217L393 218L392 217M114 218L115 219L114 218M125 218L126 219L125 218M390 218L391 219L390 218M508 232L509 232C509.056 225.832 510.336 222.011 516 219C508.763 218.032 508.015 226.751 508 232z"/>
<path style="fill:#b1911b; stroke:none;" d="M516.004 218.668C504.175 222.072 508.631 241.613 520.999 238.412C533.6 235.15 528.504 215.071 516.004 218.668z"/>
<path style="fill:#b8555b; stroke:none;" d="M521.667 218.333L522.333 218.667L521.667 218.333M112.667 219.333L113.333 219.667L112.667 219.333M127 219L128 220L127 219M389 219L390 220L389 219M523.667 219.333L524.333 219.667L523.667 219.333M128 220L129 221L128 220z"/>
<path style="fill:#b1911b; stroke:none;" d="M386 220L385 222L386 220z"/>
<path style="fill:#b8555b; stroke:none;" d="M387 220L388 221L387 220M525 220L526 221L525 220M111 221L112 222L111 221M386 221L387 222L386 221M526 221L527 222L526 221M110.333 222.667L110.667 223.333L110.333 222.667M129 222L130 223L129 222z"/>
<path style="fill:#b1911b; stroke:none;" d="M383 222C379.468 224.328 376.57 226.296 380 230L378 226L384 223L383 222z"/>
<path style="fill:#b8555b; stroke:none;" d="M384 222L385 223L384 222M527 222L528 223L527 222M383 223L384 224L383 223M130 224L130 231L131 231L130 224M381 224L382 225L381 224M528 224L528 227L529 227L528 224M379 225L380 226L379 225M378.333 226.667L378.667 227.333L378.333 226.667M379 228L380 229L379 228M380 229L381 230L380 229z"/>
<path style="fill:#b1911b; stroke:none;" d="M381 230L382 231L381 230z"/>
<path style="fill:#b8555b; stroke:none;" d="M382 230L383 231L382 230M528.333 230.667L528.667 231.333L528.333 230.667M110 231L111 232L110 231z"/>
<path style="fill:#b1911b; stroke:none;" d="M383 231L384 232L383 231z"/>
<path style="fill:#b8555b; stroke:none;" d="M384 231L385 232L384 231M129 232L130 233L129 232z"/>
<path style="fill:#b1911b; stroke:none;" d="M385 232L386 233L385 232z"/>
<path style="fill:#b8555b; stroke:none;" d="M386 232L386 233C393.946 237.593 404.123 246.665 406 256L407 256C405.924 246.326 394.782 235.402 386 232M111 233L112 234L111 233M128 233L129 234L128 233z"/>
<path style="fill:#b1911b; stroke:none;" d="M387 233L388 234L387 233z"/>
<path style="fill:#ba0705; stroke:none;" d="M389 233L389 234C406.493 246.275 418.855 274.578 400 292L400 293C414.657 296.024 427.052 293.2 441 288C439.009 283.047 431.706 282.917 427 281C433.609 278.341 443.094 280.534 448 274L443 273L443 272L463 264L457 260L458 258C437.252 245.302 413.219 236.077 389 233z"/>
<path style="fill:#b8555b; stroke:none;" d="M509.333 233.667L509.667 234.333L509.333 233.667M527 234L528 235L527 234M112 235L113 236L112 235M127 235L128 236L127 235z"/>
<path style="fill:#b1911b; stroke:none;" d="M390 235L391 236L390 235z"/>
<path style="fill:#b8555b; stroke:none;" d="M510 235L511 236L510 235M526 235L527 236L526 235M114 236L115 237L114 236M125 236L126 237L125 236M511 236L512 237L511 236M525 236L526 237L525 236M116.667 237.333L117.333 237.667L116.667 237.333M123.667 237.333L124.333 237.667L123.667 237.333M512.667 237.333L513.333 237.667L512.667 237.333M524 237L525 238L524 237M119 238L119 239L122 239L119 238M514.667 238.333L515.333 238.667L514.667 238.333M521.667 238.333L522.333 238.667L521.667 238.333z"/>
<path style="fill:#b1911b; stroke:none;" d="M251 241L251 242L276 241C269.715 238.363 257.48 239.085 251 241z"/>
<path style="fill:#b8555b; stroke:none;" d="M276 240L276 241L279 241L276 240z"/>
<path style="fill:#b1911b; stroke:none;" d="M279 240L279 241L283 241L279 240z"/>
<path style="fill:#070404; stroke:none;" d="M252 241C252 259.362 252.135 277.127 248 295L265 295C261.468 280.089 258.803 268.163 269.379 255.001C273.478 249.899 280.04 246.83 283 241L252 241z"/>
<path style="fill:#b8555b; stroke:none;" d="M283 241L286 243L286 242L283 241z"/>
<path style="fill:#b1911b; stroke:none;" d="M284 241L285 242L284 241M287 241L287 242L312 242L287 241z"/>
<path style="fill:#b8555b; stroke:none;" d="M312.667 241.333L313.333 241.667L312.667 241.333z"/>
<path style="fill:#b1911b; stroke:none;" d="M314 241L314 242L318 242L314 241z"/>
<path style="fill:#b8555b; stroke:none;" d="M251 242L251 272L252 272L251 242z"/>
<path style="fill:#ba0705; stroke:none;" d="M304 324C321.132 327.054 336.563 342.992 355 340L355 336C360.054 335.443 366.385 333.12 368 328C372.749 327.626 374.797 325.57 376 321L386 320C374.523 309.979 356.041 305.413 346.359 293.907C338.07 284.056 344.748 274.007 356 272C355.998 250.895 339.462 245.089 321 242.576C310.817 241.19 292.644 239.158 283 243.053C266.108 249.875 258.241 270.243 262.34 287C265.206 298.718 277.954 308.154 288 313.688C293.151 316.526 301 318.807 304 324z"/>
<path style="fill:#b8555b; stroke:none;" d="M320 242L320 243L327 243L320 242z"/>
<path style="fill:#b1911b; stroke:none;" d="M327 242L328 243L327 242z"/>
<path style="fill:#b8555b; stroke:none;" d="M328 243L328 244L331 244L328 243z"/>
<path style="fill:#b1911b; stroke:none;" d="M331 243L332 244L331 243M398 243L399 244L398 243z"/>
<path style="fill:#b8555b; stroke:none;" d="M332 244L332 245L336 245L332 244M336.667 245.333L337.333 245.667L336.667 245.333z"/>
<path style="fill:#b1911b; stroke:none;" d="M400 245L401 246L400 245z"/>
<path style="fill:#b8555b; stroke:none;" d="M114 246L114 247L123 248L114 246M338.667 246.333L339.333 246.667L338.667 246.333z"/>
<path style="fill:#b1911b; stroke:none;" d="M340 246L341 247L340 246z"/>
<path style="fill:#b8555b; stroke:none;" d="M112 247L113 248L112 247z"/>
<path style="fill:#b1911b; stroke:none;" d="M113.188 247.703C101.938 252.09 109.693 271.224 121.957 266.258C134.27 261.272 125.527 242.891 113.188 247.703z"/>
<path style="fill:#b8555b; stroke:none;" d="M341.667 247.333L342.333 247.667L341.667 247.333M517.667 247.333L518.333 247.667L517.667 247.333z"/>
<path style="fill:#b1911b; stroke:none;" d="M519.001 247.651C506.172 249.972 508.985 270.645 521.999 268.106C534.255 265.716 531.709 245.353 519.001 247.651z"/>
<path style="fill:#b8555b; stroke:none;" d="M522.667 247.333L523.333 247.667L522.667 247.333M124 248L125 249L124 248M343.667 248.333L344.333 248.667L343.667 248.333M515 248L516 249L515 248M525.667 248.333L526.333 248.667L525.667 248.333M109.667 249.333L110.333 249.667L109.667 249.333M125 249L126 250L125 249M345 249L348 251L348 250L345 249z"/>
<path style="fill:#b1911b; stroke:none;" d="M346 249L347 250L346 249M403 249L404 250L403 249z"/>
<path style="fill:#b8555b; stroke:none;" d="M514 249L515 250L514 249M527 249L528 250L527 249M126.333 250.667L126.667 251.333L126.333 250.667z"/>
<path style="fill:#b1911b; stroke:none;" d="M404 250L405 251L404 250z"/>
<path style="fill:#b8555b; stroke:none;" d="M512 250L513 251L512 250M528 250L529 251L528 250M108.333 251.667L108.667 252.333L108.333 251.667M348 251L349 252L348 251M529.333 251.667L529.667 252.333L529.333 251.667M127 252L128 253L127 252M349 252L352 255L349 252z"/>
<path style="fill:#b1911b; stroke:none;" d="M350 252L351 253L350 252z"/>
<path style="fill:#b8555b; stroke:none;" d="M511 252L512 253L511 252M107 253L107 261L108 261L107 253M510.333 254.667L510.667 255.333L510.333 254.667M530 254L530 262L531 262L530 254M352 255L355 262L356 262L352 255z"/>
<path style="fill:#b1911b; stroke:none;" d="M353 255L354 256L353 255M354 256L355 257L354 256z"/>
<path style="fill:#b8555b; stroke:none;" d="M407.333 257.667L407.667 258.333L407.333 257.667z"/>
<path style="fill:#b1911b; stroke:none;" d="M355 258L356 259L355 258M407 259L408 260L407 259z"/>
<path style="fill:#b8555b; stroke:none;" d="M127.333 260.667L127.667 261.333L127.333 260.667M408 260L408 275L409 275L408 260M510.333 260.667L510.667 261.333L510.333 260.667M108.333 261.667L108.667 262.333L108.333 261.667z"/>
<path style="fill:#b1911b; stroke:none;" d="M356.333 261.667L356.667 262.333L356.333 261.667z"/>
<path style="fill:#b8555b; stroke:none;" d="M126.333 262.667L126.667 263.333L126.333 262.667M356 263L356 274L357 274L356 263M511 263L512 264L511 263M529 263L530 264L529 263M110 264L110 266L112 266L110 264M125 264L126 265L125 264M124 265L125 266L124 265M512 265L513 266L512 265M528 265L529 266L528 265M112 266L113 267L112 266M122.667 266.333L123.333 266.667L122.667 266.333M513 266L514 267L513 266M526.667 266.333L527.333 266.667L526.667 266.333M114 267L114 268L121 268L114 267M515.667 267.333L516.333 267.667L515.667 267.333M524.667 267.333L525.333 267.667L524.667 267.333M517.667 268.333L518.333 268.667L517.667 268.333M521 268L521 269L524 269L521 268z"/>
<path style="fill:#b1911b; stroke:none;" d="M250 272L250 285L251 285L250 272z"/>
<path style="fill:#070404; stroke:none;" d="M356 272C351.834 272.427 337.133 278.173 342.658 284.574C348.123 290.904 355.348 275.656 356 272z"/>
<path style="fill:#ba0705; stroke:none;" d="M448.333 272.667L448.667 273.333L448.333 272.667z"/>
<path style="fill:#b1911b; stroke:none;" d="M200 274L201 322L301 322L301 321L282 310L279 308L278 308L279 310L278 310L274 308L275 310L274 310L273 310L273 306C268.902 308.561 250.729 305.349 248 302L228 300L208 291L207 291L207 299L206 299L206 293L203 295L202 295L200 274M356.333 274.667L356.667 275.333L356.333 274.667z"/>
<path style="fill:#b8555b; stroke:none;" d="M119 275L120 276L119 275M355 275L353 280L354 280L355 275z"/>
<path style="fill:#b1911b; stroke:none;" d="M407.333 275.667L407.667 276.333L407.333 275.667z"/>
<path style="fill:#b8555b; stroke:none;" d="M110 282L111 282L117 277C113.336 276.508 111.53 278.896 110 282z"/>
<path style="fill:#b1911b; stroke:none;" d="M117.004 276.667C104.638 280.266 109.496 299.381 121.999 296.387C134.622 293.365 129.451 273.045 117.004 276.667z"/>
<path style="fill:#b8555b; stroke:none;" d="M122.667 276.333L123.333 276.667L122.667 276.333M518.667 276.333L519.333 276.667L518.667 276.333M125 277L126 278L125 277z"/>
<path style="fill:#b1911b; stroke:none;" d="M355 277L356 278L355 277z"/>
<path style="fill:#b8555b; stroke:none;" d="M407.333 277.667L407.667 278.333L407.333 277.667M508 286L509 286L516 278C511.195 277.357 508.844 281.827 508 286z"/>
<path style="fill:#b1911b; stroke:none;" d="M516.004 277.667C503.665 281.258 508.391 300.171 520.996 297.106C533.566 294.049 528.498 274.031 516.004 277.667z"/>
<path style="fill:#b8555b; stroke:none;" d="M521.667 277.333L522.333 277.667L521.667 277.333M126 278L127 279L126 278M524 278L525 279L524 278M127 279L128 280L127 279z"/>
<path style="fill:#b1911b; stroke:none;" d="M354 279L355 280L354 279z"/>
<path style="fill:#b8555b; stroke:none;" d="M525 279L526 280L525 279M128.333 280.667L128.667 281.333L128.333 280.667z"/>
<path style="fill:#b1911b; stroke:none;" d="M353 280L354 281L353 280z"/>
<path style="fill:#b8555b; stroke:none;" d="M406.333 280.667L406.667 281.333L406.333 280.667M526 280L527 281L526 280z"/>
<path style="fill:#b1911b; stroke:none;" d="M352 281L353 282L352 281z"/>
<path style="fill:#b8555b; stroke:none;" d="M527 281L528 282L527 281M129 282L129 285L130 285L129 282M350.667 282.333L351.333 282.667L350.667 282.333z"/>
<path style="fill:#b1911b; stroke:none;" d="M405 282L406 283L405 282z"/>
<path style="fill:#b8555b; stroke:none;" d="M109.333 283.667L109.667 284.333L109.333 283.667z"/>
<path style="fill:#b1911b; stroke:none;" d="M350 283L351 284L350 283z"/>
<path style="fill:#b8555b; stroke:none;" d="M405 283L402 290L403 290L405 283M348 284L344 287L344 288L348 284z"/>
<path style="fill:#b1911b; stroke:none;" d="M349 284L350 285L349 284M404 284L405 285L404 284z"/>
<path style="fill:#b8555b; stroke:none;" d="M528.333 284.667L528.667 285.333L528.333 284.667M250.333 285.667L250.667 286.333L250.333 285.667z"/>
<path style="fill:#b1911b; stroke:none;" d="M348 285L349 286L348 285M249.333 286.667L249.667 287.333L249.333 286.667M347 286L348 287L347 286M403 286L404 287L403 286M345 287L346 288L345 287z"/>
<path style="fill:#b8555b; stroke:none;" d="M109.333 288.667L109.667 289.333L109.333 288.667M129 288L129 291L130 291L129 288M249.333 288.667L249.667 289.333L249.333 288.667M343 288L343 291L344 291L343 288z"/>
<path style="fill:#b1911b; stroke:none;" d="M402 288L403 289L402 288M248 289L248 292L249 292L248 289z"/>
<path style="fill:#b8555b; stroke:none;" d="M508 289L508 292L509 292L508 289M528.333 289.667L528.667 290.333L528.333 289.667M401 290L400 292L402 292L401 290M110.333 291.667L110.667 292.333L110.333 291.667M344 291L345 292L344 291M128 292L129 293L128 292M248 292L249 293L248 292M345 292L350 297L350 296L345 292z"/>
<path style="fill:#b1911b; stroke:none;" d="M398 292L392 299L398 292z"/>
<path style="fill:#b8555b; stroke:none;" d="M399 292L400 293L399 292M509 292L510 293L509 292M527.333 292.667L527.667 293.333L527.333 292.667M111 293L112 294L111 293M127 293L128 294L127 293z"/>
<path style="fill:#b1911b; stroke:none;" d="M247 293C249.05 299.177 258.611 297 264 297L264 296L247 293M346 293L347 294L346 293z"/>
<path style="fill:#b8555b; stroke:none;" d="M398 293L399 294L398 293M112 294L113 295L112 294M126 294L127 295L126 294z"/>
<path style="fill:#b1911b; stroke:none;" d="M347 294L348 295L347 294z"/>
<path style="fill:#b8555b; stroke:none;" d="M397 294L398 295L397 294M510 294L511 295L510 294M526 294L527 295L526 294M113.667 295.333L114.333 295.667L113.667 295.333M125 295L126 296L125 295M249.667 295.333L250.333 295.667L249.667 295.333M252.667 295.333L253.333 295.667L252.667 295.333M255 295L255 296C261.245 296 264.859 296.299 270 300C266.931 293.914 261 295 255 295z"/>
<path style="fill:#b1911b; stroke:none;" d="M348 295L349 296L348 295z"/>
<path style="fill:#b8555b; stroke:none;" d="M396 295L397 296L396 295M511 295L512 296L511 295M525 295L526 296L525 295M115 296L115 297L118 297L115 296M122.667 296.333L123.333 296.667L122.667 296.333z"/>
<path style="fill:#b1911b; stroke:none;" d="M266 296L267 297L266 296z"/>
<path style="fill:#b8555b; stroke:none;" d="M395 296L396 297L395 296M512.667 296.333L513.333 296.667L512.667 296.333M523 296L524 297L523 296M119 297L120 298L119 297z"/>
<path style="fill:#b1911b; stroke:none;" d="M231 297L232 298L231 297z"/>
<path style="fill:#b8555b; stroke:none;" d="M350 297L352 299L350 297z"/>
<path style="fill:#b1911b; stroke:none;" d="M351 297L352 298L351 297z"/>
<path style="fill:#b8555b; stroke:none;" d="M394 297L395 298L394 297M514 297L514 298L518 298L514 297M520.667 297.333L521.333 297.667L520.667 297.333z"/>
<path style="fill:#b1911b; stroke:none;" d="M352 298L353 299L352 298z"/>
<path style="fill:#b8555b; stroke:none;" d="M393 298L394 299L393 298M353 299L354 300L353 299z"/>
<path style="fill:#b1911b; stroke:none;" d="M354 299L355 300L354 299M391 299L392 300L391 299z"/>
<path style="fill:#b8555b; stroke:none;" d="M270 300L279 308L270 300M355 300L355 301L359 303L359 302L355 300z"/>
<path style="fill:#b1911b; stroke:none;" d="M356 300L357 301L356 300M389 300L385 303L385 304L389 300z"/>
<path style="fill:#b8555b; stroke:none;" d="M390 300L391 301L390 300z"/>
<path style="fill:#b1911b; stroke:none;" d="M264.333 301.667L264.667 302.333L264.333 301.667M270 301L271 302L270 301M358 301L359 302L358 301z"/>
<path style="fill:#b8555b; stroke:none;" d="M389 301L390 302L389 301z"/>
<path style="fill:#b1911b; stroke:none;" d="M271 302L272 303L271 302M359 302L360 303L359 302z"/>
<path style="fill:#b8555b; stroke:none;" d="M388 302L389 303L388 302M125 303L126 304L125 303z"/>
<path style="fill:#b1911b; stroke:none;" d="M266 303L267 304L266 303M272 303L273 304L272 303z"/>
<path style="fill:#b8555b; stroke:none;" d="M360 303L360 304L364 305L364 304L360 303z"/>
<path style="fill:#b1911b; stroke:none;" d="M362 303L363 304L362 303z"/>
<path style="fill:#b8555b; stroke:none;" d="M386 303L387 304L386 303M121 304L122 305L121 304z"/>
<path style="fill:#b1911b; stroke:none;" d="M122.015 304.743C109.889 309.452 116.785 328.437 128.985 323.837C141.142 319.253 134.069 300.063 122.015 304.743z"/>
<path style="fill:#b8555b; stroke:none;" d="M129 304L130 305L129 304z"/>
<path style="fill:#b1911b; stroke:none;" d="M273 304L274 305L273 304M383 304L384 305L383 304z"/>
<path style="fill:#b8555b; stroke:none;" d="M384 304L385 305L384 304M504 307L504 308L517 306C512.579 302.997 508.469 304.914 504 307M119 305L120 306L119 305M131 305L132 306L131 305z"/>
<path style="fill:#b1911b; stroke:none;" d="M274 305L275 306L274 305z"/>
<path style="fill:#b8555b; stroke:none;" d="M364 305L364 306C368.747 307.977 373.63 312.141 378 308L364 305z"/>
<path style="fill:#b1911b; stroke:none;" d="M366 305L367 306L366 305M381 305L380 307L381 305z"/>
<path style="fill:#b8555b; stroke:none;" d="M382.667 305.333L383.333 305.667L382.667 305.333z"/>
<path style="fill:#b1911b; stroke:none;" d="M510.004 305.573C497.014 308.677 502.083 327.402 514.985 324.721C526.856 322.253 522.37 302.617 510.004 305.573z"/>
<path style="fill:#b8555b; stroke:none;" d="M118 306L119 307L118 306M132 306L133 307L132 306z"/>
<path style="fill:#b1911b; stroke:none;" d="M275 306L276 307L275 306M368 306L369 307L368 306z"/>
<path style="fill:#b8555b; stroke:none;" d="M381 306L382 307L381 306M518 306L519 307L518 306M117 307L118 308L117 307M133 307L134 308L133 307z"/>
<path style="fill:#b1911b; stroke:none;" d="M276 307L277 308L276 307M370 307L371 308L370 307M378 307L379 308L378 307z"/>
<path style="fill:#b8555b; stroke:none;" d="M379 307L380 308L379 307M519 307L520 308L519 307M116.333 308.667L116.667 309.333L116.333 308.667M134.333 308.667L134.667 309.333L134.333 308.667M279 308L280 309L279 308z"/>
<path style="fill:#b1911b; stroke:none;" d="M372 308L373 309L372 308M376 308L377 309L376 308z"/>
<path style="fill:#b8555b; stroke:none;" d="M520 308L521 309L520 308M280.667 309.333L281.333 309.667L280.667 309.333z"/>
<path style="fill:#b1911b; stroke:none;" d="M374.667 309.333L375.333 309.667L374.667 309.333z"/>
<path style="fill:#b8555b; stroke:none;" d="M503 309L504 310L503 309M521.333 309.667L521.667 310.333L521.333 309.667M115.333 310.667L115.667 311.333L115.333 310.667M135.333 310.667L135.667 311.333L135.333 310.667M200.333 310.667L200.667 311.333L200.333 310.667z"/>
<path style="fill:#ddb358; stroke:none;" d="M280 310L281 311L280 310z"/>
<path style="fill:#b8555b; stroke:none;" d="M282 310L286 313L286 312L282 310z"/>
<path style="fill:#ddb358; stroke:none;" d="M275.667 311.333L276.333 311.667L275.667 311.333M281.667 311.333L282.333 311.667L281.667 311.333z"/>
<path style="fill:#b8555b; stroke:none;" d="M502 311L503 312L502 311M522 312L522 318L523 318L522 312M200 313L200 322L201 322L200 313z"/>
<path style="fill:#ddb358; stroke:none;" d="M283 313L286 315L286 314L283 313z"/>
<path style="fill:#b8555b; stroke:none;" d="M286.667 313.333L287.333 313.667L286.667 313.333M288.667 314.333L289.333 314.667L288.667 314.333M501 314L501 317L502 317L501 314M290.667 315.333L291.333 315.667L290.667 315.333M115.333 316.667L115.667 317.333L115.333 316.667M135.333 316.667L135.667 317.333L135.333 316.667M292.667 316.333L293.333 316.667L292.667 316.333M294 317L297 319L294 317M502.333 318.667L502.667 319.333L502.333 318.667M116.333 319.667L116.667 320.333L116.333 319.667M134.333 319.667L134.667 320.333L134.333 319.667M297.667 319.333L298.333 319.667L297.667 319.333M521.333 319.667L521.667 320.333L521.333 319.667M299 320L299 321L301 321L301 322L201 322L201 323L304 323L299 320M503.333 320.667L503.667 321.333L503.333 320.667M117 321L118 322L117 321M133 321L134 322L133 321M520 321L521 322L520 321M118 322L119 323L118 322M132 322L133 323L132 322M504 322L505 323L504 322M120 323L121 324L120 323M130.667 323.333L131.333 323.667L130.667 323.333M505 323L506 324L505 323M518.667 323.333L519.333 323.667L518.667 323.333M121 324L121 325L124 325L121 324M127 324L127 325L130 325L127 324M506.667 324.333L507.333 324.667L506.667 324.333M517 324L518 325L517 324M509 325L509 326L515 326L509 325M127 335L133 332L127 335z"/>
<path style="fill:#b1911b; stroke:none;" d="M133.004 331.668C121.15 335.079 125.783 354.806 137.999 351.332C150.766 347.701 145.528 328.064 133.004 331.668z"/>
<path style="fill:#b8555b; stroke:none;" d="M138.667 331.333L139.333 331.667L138.667 331.333M500 331L500 332L504 332L500 331M140.667 332.333L141.333 332.667L140.667 332.333M492 338L493 338L499 333C495.282 332.249 493.512 334.859 492 338z"/>
<path style="fill:#b1911b; stroke:none;" d="M499.004 332.576C486.555 336.026 492.415 354.865 504.995 351.682C517.232 348.586 511.521 329.107 499.004 332.576z"/>
<path style="fill:#b8555b; stroke:none;" d="M505.667 332.333L506.333 332.667L505.667 332.333M142 333L143 334L142 333M507 333L508 334L507 333M143 334L144 335L143 334M509 334L510 335L509 334M126 336L127 337L126 336M145.333 337.667L145.667 338.333L145.333 337.667M125 338L125 346L126 346L125 338M511 338L512 339L511 338M491 339L491 345L492 345L491 339M512 341L513 342L512 341M145.333 344.667L145.667 345.333L145.333 344.667M511.333 345.667L511.667 346.333L511.333 345.667M126 346L127 347L126 346M492.333 346.667L492.667 347.333L492.333 346.667M144 347L145 348L144 347M127 348L128 349L127 348M143 348L144 349L143 348M493 348L494 349L493 348M510 348L511 349L510 348M128.667 349.333L129.333 349.667L128.667 349.333M142 349L143 350L142 349M494 349L495 350L494 349M509 349L510 350L509 349M130 350L131 351L130 350M140.667 350.333L141.333 350.667L140.667 350.333M495 350L496 351L495 350M508 350L509 351L508 350M132 351L133 352L132 351M138.667 351.333L139.333 351.667L138.667 351.333M496 351L497 352L496 351M507 351L508 352L507 351M498 352L498 353L505 353L498 352z"/>
<path style="fill:#ba0705; stroke:none;" d="M280 384C284.416 385.003 287.181 384.907 288 380L300 377L300 376L296 376L297 374L288 374C295.224 370.455 306.216 373.913 314 374.845C330.593 376.832 347.335 378.156 364 376.155C371.388 375.268 383.671 373.965 387.817 366.699C391.675 359.937 381.994 353.296 376 353.657C371.33 353.938 368.118 357.454 364 359.15C358.907 361.247 353.389 361 348 361C330.362 361 312.249 352.959 295 354.184C284.128 354.957 275.93 359.538 267 365.427C262.376 368.477 251.86 373.236 250.453 379.043C247.531 391.102 278.504 397.031 280 384z"/>
<path style="fill:#b8555b; stroke:none;" d="M144 356L144 357L147 357L144 356z"/>
<path style="fill:#b1911b; stroke:none;" d="M147.001 356.498C134.121 358.92 138.617 379.03 150.996 376.541C163.563 374.014 159.541 354.141 147.001 356.498z"/>
<path style="fill:#b8555b; stroke:none;" d="M152.667 356.333L153.333 356.667L152.667 356.333M483 357L483 358L491 357L483 357M142 357L143 358L142 357M154 357L155 358L154 357z"/>
<path style="fill:#b1911b; stroke:none;" d="M485.015 357.573C472.892 361.092 478.641 379.927 490.996 376.566C503.334 373.209 498.031 353.795 485.015 357.573z"/>
<path style="fill:#b8555b; stroke:none;" d="M492.667 357.333L493.333 357.667L492.667 357.333M141 358L142 359L141 358M155 358L157 360L157 358L155 358M481 358L482 359L481 358M494 358L495 359L494 358M140 359L141 360L140 359M480 359L481 360L480 359M157 360L158 363L159 363L159 360L157 360M479.333 360.667L479.667 361.333L479.333 360.667M139 361L140 362L139 361M478.333 362.667L478.667 363.333L478.333 362.667M497 362L498 363L497 362M138 363L138 369L139 369L138 363M159 363L159 369L160 369L159 363M498 364L498 370L499 370L498 364M477 365L477 369L478 369L477 365M139.333 370.667L139.667 371.333L139.333 370.667M158.333 370.667L158.667 371.333L158.333 370.667M478.333 370.667L478.667 371.333L478.333 370.667M497.333 371.667L497.667 372.333L497.333 371.667M140 372L141 373L140 372M157 372L158 373L157 372M479.333 372.667L479.667 373.333L479.333 372.667M141 373L142 374L141 373M496 373L497 374L496 373M142 374L143 375L142 374M155.667 374.333L156.333 374.667L155.667 374.333M480 374L481 375L480 374M495 374L496 375L495 374M143 375L144 376L143 375M154 375L155 376L154 375M481 375L482 376L481 375M494 375L495 376L494 375M145.667 376.333L146.333 376.667L145.667 376.333M152 376L153 377L152 376M483 376L484 377L483 376M492 376L493 377L492 376M485 377L485 378L491 378L485 377M164 378L164 379L175 385C174.65 379.636 168.509 378.397 164 378z"/>
<path style="fill:#ba0705; stroke:none;" d="M305 378L306 379L305 378z"/>
<path style="fill:#b8555b; stroke:none;" d="M161.667 379.333L162.333 379.667L161.667 379.333z"/>
<path style="fill:#b1911b; stroke:none;" d="M163.005 379.587C150.634 382.868 156.453 401.782 168.999 398.681C181.593 395.569 175.395 376.301 163.005 379.587z"/>
<path style="fill:#b8555b; stroke:none;" d="M467.667 379.333L468.333 379.667L467.667 379.333z"/>
<path style="fill:#b1911b; stroke:none;" d="M469.001 379.613C456.573 382.563 460.008 402.193 472.985 399.591C485.582 397.066 481.307 376.691 469.001 379.613z"/>
<path style="fill:#b8555b; stroke:none;" d="M473.667 379.333L474.333 379.667L473.667 379.333M159 380L160 381L159 380M465 380L466 381L465 380M476 380L477 381L476 380M158 381L159 382L158 381M464 381L465 382L464 381M477 381L478 382L477 381M157 382L158 383L157 382M462 382L462 384L464 382L462 382M478 382L479 383L478 382M479 383L480 384L479 383M156.333 384.667L156.667 385.333L156.333 384.667M461.333 384.667L461.667 385.333L461.333 384.667M480.333 385.667L480.667 386.333L480.333 385.667M460 386L460 393L461 393L460 386M155 387L155 392L156 392L155 387M176 387L176 391L177 391L176 387M156 393L157 394L156 393M480 393L481 394L480 393M175 394L176 395L175 394M461.333 394.667L461.667 395.333L461.333 394.667M157 395L158 396L157 395M174 395L175 396L174 395M203 395L203 399L204 399L203 395M432.333 395.667L432.667 396.333L432.333 395.667M158 396L159 397L158 396M173 396L174 397L173 396M430 396L427 400L430 396z"/>
<path style="fill:#b1911b; stroke:none;" d="M431 396C386.745 438.203 315.319 448.596 259 427.947C238.585 420.462 223.255 405.569 204 397C202.524 403.198 204.025 412.39 200.972 417.895C197.48 424.193 184.405 428.333 178 431C181.224 437.349 189.118 441.647 195 445.414C208.756 454.221 222.749 461.903 238 467.811C313.888 497.211 392.374 480.422 457 434L457 433L435.028 420.787L431 396z"/>
<path style="fill:#b8555b; stroke:none;" d="M462 396L463 397L462 396M478.667 396.333L479.333 396.667L478.667 396.333M159 397L160 398L159 397M172 397L173 398L172 397M206 397L207 398L206 397M463 397L464 398L463 397M160.667 398.333L161.333 398.667L160.667 398.333M171 398L172 399L171 398M207 398L208 399L207 398M464.667 398.333L465.333 398.667L464.667 398.333M476 398L477 399L476 398M162 399L162 400L170 400L162 399M176 404L182 400L176 404z"/>
<path style="fill:#b1911b; stroke:none;" d="M182.005 399.743C169.374 404.591 177.267 423.27 189.956 418.106C201.296 413.492 193.468 395.343 182.005 399.743z"/>
<path style="fill:#b8555b; stroke:none;" d="M189 399L190 400L189 399M208 399L209 400L208 399M433 399L433 408L434 408L433 399M443 401L443 402L448 400L443 401z"/>
<path style="fill:#b1911b; stroke:none;" d="M448.015 399.707C434.805 404.144 443.048 423.512 455.956 418.258C466.739 413.868 459.398 395.884 448.015 399.707z"/>
<path style="fill:#b8555b; stroke:none;" d="M454.667 399.333L455.333 399.667L454.667 399.333M466.667 399.333L467.333 399.667L466.667 399.333M474.667 399.333L475.333 399.667L474.667 399.333M191 400L192 401L191 400M202 400L202 408L203 408L202 400M209 400L210 401L209 400M457 400L458 401L457 400M192 401L193 402L192 401M211 401L212 402L211 401M424.667 401.333L425.333 401.667L424.667 401.333M458 401L459 402L458 401M193 402L194 403L193 402M212 402L213 403L212 402M423 402L424 403L423 402M459 402L460 403L459 402M194 403L195 404L194 403M422 403L423 404L422 403M442 403L443 404L442 403M215 404L216 405L215 404M420 404L421 405L420 404M460 404L461 405L460 404M175 405L175 408L176 408L175 405M195.333 405.667L195.667 406.333L195.333 405.667M216 405L217 406L216 405M419 405L420 406L419 405M441 405L442 406L441 405M218 406L219 407L218 406M418 406L419 407L418 406M461 406L461 413L462 413L461 406M219 407L220 408L219 407M416 407L417 408L416 407M221 408L222 409L221 408M414.667 408.333L415.333 408.667L414.667 408.333M440 408L440 411L441 411L440 408M222 409L223 410L222 409M413 409L414 410L413 409M195 410L195 413L196 413L195 410M412 410L413 411L412 410M175 411L175 414L176 414L175 411M225 411L226 412L225 411M410 411L411 412L410 411M227 412L228 413L227 412M408.667 412.333L409.333 412.667L408.667 412.333M441.333 412.667L441.667 413.333L441.333 412.667M228.667 413.333L229.333 413.667L228.667 413.333M407 413L408 414L407 413M176 414L178 417L176 414M194 414L195 415L194 414M230 414L231 415L230 414M405 414L406 415L405 414M460.333 414.667L460.667 415.333L460.333 414.667M232 415L233 416L232 415M403 415L404 416L403 415M442 415L443 416L442 415M193 416L194 417L193 416M201 416L201 419L202 419L201 416M233.667 416.333L234.333 416.667L233.667 416.333M401.667 416.333L402.333 416.667L401.667 416.333M443 416L444 417L443 416M178 417L179 418L178 417M192 417L193 418L192 417M235.667 417.333L236.333 417.667L235.667 417.333M399.667 417.333L400.333 417.667L399.667 417.333M434.333 417.667L434.667 418.333L434.333 417.667M444 417L445 418L444 417M180 418L181 419L180 418M189.667 418.333L190.333 418.667L189.667 418.333M237.667 418.333L238.333 418.667L237.667 418.333M398 418L399 419L398 418M445.667 418.333L446.333 418.667L445.667 418.333M456 418L457 419L456 418M182 419L182 420L188 420L182 419M200 419L201 420L200 419M239 419L240 420L239 419M395.667 419.333L396.333 419.667L395.667 419.333M448 419L448 420L455 420L448 419M199 420L200 421L199 420M241.667 420.333L242.333 420.667L241.667 420.333M394 420L395 421L394 420M434.333 420.667L434.667 421.333L434.333 420.667M197 421L198 422L197 421M243.667 421.333L244.333 421.667L243.667 421.333M391.667 421.333L392.333 421.667L391.667 421.333M195 422L196 423L195 422M245.667 422.333L246.333 422.667L245.667 422.333M390 422L391 423L390 422M435 422L436 423L435 422M193 423L194 424L193 423M248 423L249 424L248 423M387.667 423.333L388.333 423.667L387.667 423.333M437 423L438 424L437 423M191 424L192 425L191 424M250 424L251 425L250 424M385 424L386 425L385 424M439 424L440 425L439 424M189 425L190 426L189 425M252.667 425.333L253.333 425.667L252.667 425.333M382.667 425.333L383.333 425.667L382.667 425.333M441 425L442 426L441 425M187 426L188 427L187 426M255 426L256 427L255 426M380 426L381 427L380 426M443 426L444 427L443 426M185 427L186 428L185 427M257.667 427.333L258.333 427.667L257.667 427.333M377.667 427.333L378.333 427.667L377.667 427.333M445 427L446 428L445 427M183 428L184 429L183 428M260.667 428.333L261.333 428.667L260.667 428.333M374.667 428.333L375.333 428.667L374.667 428.333M447 428L448 429L447 428M181 429L182 430L181 429M263.667 429.333L264.333 429.667L263.667 429.333M371.667 429.333L372.333 429.667L371.667 429.333M449 429L450 430L449 429M179 430L180 431L179 430M266.667 430.333L267.333 430.667L266.667 430.333M368.667 430.333L369.333 430.667L368.667 430.333M451.667 430.333L452.333 430.667L451.667 430.333M177.333 431.667L177.667 432.333L177.333 431.667M270.667 431.333L271.333 431.667L270.667 431.333M365 431L366 432L365 431M454 431L455 432L454 431M273 432L273 433L276 433L273 432M360 432L360 433L363 433L360 432M456 432L457 433L456 432M178 433L179 434L178 433M277 433L277 434L280 434L277 433M356 433L356 434L359 434L356 433M179 434L180 435L179 434M282 434L282 435L285 435L282 434M352.667 434.333L353.333 434.667L352.667 434.333M456 434L457 435L456 434M181 435L182 436L181 435M287 435L287 436L290 436L287 435M346 435L346 436L349 436L346 435M454.667 435.333L455.333 435.667L454.667 435.333M182 436L183 437L182 436M292 436L292 437L298 437L292 436M339 436L339 437L344 437L339 436M453 436L454 437L453 436M183 437L184 438L183 437M301 437L301 438L312 438L301 437M325 437L325 438L336 438L325 437M452 437L453 438L452 437M185 438L186 439L185 438M316 438L316 439L320 439L316 438M449 440L452 438L449 440M186 439L187 440L186 439M448 440L449 441L448 440M189 441L190 442L189 441M446.667 441.333L447.333 441.667L446.667 441.333M190 442L191 443L190 442M445 442L446 443L445 442M191 443L192 444L191 443M444 443L445 444L444 443M193 444L194 445L193 444M442 444L443 445L442 444M194.667 445.333L195.333 445.667L194.667 445.333M441 445L442 446L441 445M196 446L197 447L196 446M439.667 446.333L440.333 446.667L439.667 446.333M197.667 447.333L198.333 447.667L197.667 447.333M438 447L439 448L438 447M199 448L200 449L199 448M436 448L437 449L436 448M200.667 449.333L201.333 449.667L200.667 449.333M434.667 449.333L435.333 449.667L434.667 449.333M202 450L203 451L202 450M433 450L434 451L433 450M204 451L205 452L204 451M205.667 452.333L206.333 452.667L205.667 452.333M429.667 452.333L430.333 452.667L429.667 452.333M207 453L208 454L207 453M428 453L429 454L428 453M208 454L208 455L212 456L212 455L208 454M426 454L427 455L426 454M424.667 455.333L425.333 455.667L424.667 455.333M212 456L213 457L212 456M423 456L424 457L423 456M214 457L215 458L214 457M420.667 457.333L421.333 457.667L420.667 457.333M216.667 458.333L217.333 458.667L216.667 458.333M419 458L420 459L419 458M218 459L219 460L218 459M417 459L418 460L417 459M220.667 460.333L221.333 460.667L220.667 460.333M414.667 460.333L415.333 460.667L414.667 460.333M222.667 461.333L223.333 461.667L222.667 461.333M413 461L414 462L413 461M224.667 462.333L225.333 462.667L224.667 462.333M410.667 462.333L411.333 462.667L410.667 462.333M226.667 463.333L227.333 463.667L226.667 463.333M408.667 463.333L409.333 463.667L408.667 463.333M229 464L230 465L229 464M406.667 464.333L407.333 464.667L406.667 464.333M231 465L232 466L231 465M404 465L405 466L404 465M233.667 466.333L234.333 466.667L233.667 466.333M401.667 466.333L402.333 466.667L401.667 466.333M236.667 467.333L237.333 467.667L236.667 467.333M399 467L400 468L399 467M238.667 468.333L239.333 468.667L238.667 468.333M396.667 468.333L397.333 468.667L396.667 468.333M241.667 469.333L242.333 469.667L241.667 469.333M393.667 469.333L394.333 469.667L393.667 469.333M244 470L245 471L244 470M391 470L392 471L391 470M246.667 471.333L247.333 471.667L246.667 471.333M388.667 471.333L389.333 471.667L388.667 471.333M250 472L251 473L250 472M385 472L386 473L385 472M252.667 473.333L253.333 473.667L252.667 473.333M382.667 473.333L383.333 473.667L382.667 473.333M256.667 474.333L257.333 474.667L256.667 474.333M378.667 474.333L379.333 474.667L378.667 474.333M259 475L259 476L262 476L259 475M375.667 475.333L376.333 475.667L375.667 475.333M263.667 476.333L264.333 476.667L263.667 476.333M371.667 476.333L372.333 476.667L371.667 476.333M267 477L267 478L270 478L267 477M366 477L366 478L369 478L366 477M272.667 478.333L273.333 478.667L272.667 478.333M362 478L362 479L365 479L362 478M276 479L276 480L280 480L276 479M357 479L357 480L360 480L357 479M282 480L282 481L287 481L282 480M349 480L349 481L354 481L349 480M288 481L288 482L293 482L288 481M344 481L344 482L347 482L344 481M296 482L296 483L329 483L296 482M331 482L331 483L339 483L331 482M303 586C316.514 587.708 339.124 590.881 350.985 582.891C356.699 579.041 357.54 571.326 363 568C361.439 587.719 388.243 587 401 587C405.623 587 414.917 588.638 417.642 583.722C420.938 577.777 413.416 575.291 409 575.043C399.89 574.532 374.227 578.353 379.657 561.018C384.532 545.452 414.106 563.522 422 550L424 550C425.915 560.316 422.594 572.778 431.105 580.787C435.319 584.753 457.305 592.837 456.743 581C456.391 573.578 444.163 575.019 442.139 566.999C438.547 552.767 441 535.606 441 521C441 515.64 442.308 508.142 440.106 503.133C437.743 497.758 428.257 497.758 425.894 503.133C422.076 511.816 424.079 529.412 424 539L423 539C417.069 518.45 383.176 512.325 368.214 527.304C362.897 532.627 362.148 541.846 362 549C357.054 541.113 353.64 534.51 344 531.924C335.38 529.611 316.255 533.639 314.069 522.089C311.2 506.935 335.595 511.343 344 510.961C348.843 510.74 356.448 508.964 353.396 502.277C350.482 495.893 338.37 499.195 333 498.961C315.488 498.195 294.675 501.09 297.174 524C300.438 553.933 346.63 529.011 343.764 559.961C343.287 565.112 343.043 570.896 337.956 573.682C327.098 579.628 301.648 566.661 303 586M149 570C152.499 572.997 154.133 577.305 157.468 580.471C164.755 587.39 182.21 591.652 185 579C190.203 580.969 194.559 584.599 200 586.073C205.933 587.679 211.989 586.432 217.999 587.109C220.537 587.394 224.463 588.603 223.94 591.939C222.523 600.975 199.149 596.06 193.005 597.344C188.879 598.206 185.066 602.523 188.604 606.486C191.822 610.09 198.706 609 203 609C215.197 609 231.964 611.107 239.517 598.96C243.051 593.276 242.997 585.482 243 579C243.005 564.996 245.306 548.617 241.646 535C236.519 515.926 199.859 514.764 188.394 528.105C179.198 538.804 184 563.721 184 577C179.677 575.534 174.618 575.236 171.279 571.772C160.91 561.018 172.491 537.993 167.106 525.058C163.141 515.531 152.44 522.131 152.04 530C151.755 535.621 151.536 540.534 150 546C147.799 542.421 142.888 537.33 142.928 533C143.032 521.723 152.236 512.422 138.96 503.249C128.757 496.2 112.729 498.999 101 499C96.6607 499 90.0776 498.015 87.3179 502.279C84.2149 507.073 86 516.505 86 522L86 564C86 569.632 84.5775 577.647 87.0093 582.867C89.89 589.05 100.479 587 106 587C121.168 587 145.344 590.185 149 570M157.055 499.746C147.847 503.411 153.8 516.931 162.956 513.396C171.949 509.923 165.967 496.199 157.055 499.746M494 579C508.842 585.237 518.724 587.006 535 587C539.238 586.998 551.81 586.978 547.777 579.143C543.187 570.227 523.807 577.143 516.005 574.107C510.521 571.972 507.277 564.509 510.319 559.147C512.98 554.457 520.388 555 525 555C536.416 554.999 544.24 557.258 554 550C555.215 559.614 552.273 573.07 555.893 581.956C558.014 587.159 566.451 588.987 569.682 583.721C576.019 573.396 569.088 553.795 571.67 542C573.581 533.269 587.328 533.244 586.793 526.004C586.135 517.091 563.551 518.525 558.279 522.14C553.75 525.245 554.213 535.037 554 540L553 540C550.166 518.161 513.692 513.395 499.185 526.39C488.66 535.819 491.649 563.334 494 576C468.585 574.906 477 537.228 477 519C477 514.031 478.757 504.488 474.486 500.858C468.883 496.095 461.743 500.655 461.105 507.001C459.529 522.678 461 539.24 461 555C461 562.126 459.957 570.621 463.854 576.999C469.225 585.789 491.641 593.676 494 579z"/>
<path style="fill:#b1911b; stroke:none;" d="M317 540L317 539C297.048 536.009 298.637 519.54 306 506L307 506L308 506L311 507L308 506L308 505L352 502L351 506C356.205 501.28 345.755 501.001 343 501C332.724 500.995 319.646 498.862 310 502.955C291.069 510.987 297.553 538.291 317 540M428 502C425.84 519.092 427 536.773 427 554C427 561.166 425.991 570.526 430.09 576.87C433.722 582.494 441.854 584.206 448 585L447 581C440.717 582.28 438.306 580.623 434 576L438 577L437 574C442.212 578.626 445.103 579.852 452 579L452 578C443.895 577.097 439.401 570.894 439.039 563C438.111 542.757 439 522.266 439 502L428 502z"/>
<path style="fill:#ddb358; stroke:none;" d="M308 505L308 506L311 507L308 506L307 506L306 506C303.494 509.128 300.864 511.879 300.214 516C299.763 518.855 299.818 522.128 300.105 525C302.475 548.737 332.051 532.412 342.606 543.279C346.253 547.034 345.998 552.154 346 557C346.002 562.514 347.009 569.231 343.347 573.867C336.733 582.239 313.689 578 304 578L304 584C317.213 586.066 345.219 589.576 354.121 576.906C358.063 571.295 357 563.469 357 557C357 550.696 357.352 544.242 352.61 539.34C342.958 529.364 328.206 536.895 317.04 531.995C308.475 528.235 307.609 513.845 316.019 509.457C326.576 503.949 341.673 510.348 353 507L352 502L308 505z"/>
<path style="fill:#b1911b; stroke:none;" d="M464 502L465 503L464 502z"/>
<path style="fill:#ddb358; stroke:none;" d="M311 503L312 504L311 503z"/>
<path style="fill:#b1911b; stroke:none;" d="M320.667 503.333L321.333 503.667L320.667 503.333M346.667 503.333L347.333 503.667L346.667 503.333z"/>
<path style="fill:#b8555b; stroke:none;" d="M433 503L434 536L435 536L435 513L436 513L436 528L437 528L437 504L433 503z"/>
<path style="fill:#b1911b; stroke:none;" d="M327 504L328 505L327 504z"/>
<path style="fill:#b8555b; stroke:none;" d="M431 504L431 511L433 511L431 504z"/>
<path style="fill:#ba0705; stroke:none;" d="M96.3333 505.667L96.6667 506.333L96.3333 505.667z"/>
<path style="fill:#b1911b; stroke:none;" d="M352 507L353 508L352 507z"/>
<path style="fill:#b8555b; stroke:none;" d="M429 507L430 508L429 507z"/>
<path style="fill:#b1911b; stroke:none;" d="M310 524L311 524C311.899 503.437 336.337 509 351 509C343.94 506.037 319.258 505.37 313.303 510.653C309.64 513.903 310.012 519.548 310 524M306 509L307 510L306 509z"/>
<path style="fill:#b8555b; stroke:none;" d="M429 509L429 512L430 512L429 509z"/>
<path style="fill:#b1911b; stroke:none;" d="M311 510L312 511L311 510z"/>
<path style="fill:#070404; stroke:none;" d="M104.653 512.028C100.903 514.759 100.838 524.099 104.434 526.911C108.651 530.209 122.635 529.309 126.856 526.258C131.314 523.034 131.314 515.966 126.856 512.742C123.089 510.019 108.528 509.205 104.653 512.028z"/>
<path style="fill:#b1911b; stroke:none;" d="M303.667 511.333L304.333 511.667L303.667 511.333M301.333 518.667L301.667 519.333L301.333 518.667M304 520L305 521L304 520M379 584L379 583C362.463 576.852 365.994 560.503 366 546C366.003 537.985 367.196 527.999 377 527C377 521.873 398.544 524 403 524L403 525L389 526L389 529L389 530C393.691 530 398.898 529.482 402.786 532.653C409.953 538.497 404.319 544.992 397 545.826C392.318 546.359 385.24 546.822 381.148 544.062C374.058 539.28 381.442 532.125 387 531L387 530C380.379 530.364 371.037 540.238 379.433 545.566C384.53 548.801 394.205 547 400 547L397 549L400 552L400 553C386.867 553 376.011 549.814 376 566L377 566C377.66 548.448 405.413 553.009 419 553C419.942 545.55 421.429 536.617 416.348 530.185C407.237 518.652 378.98 518.663 369.214 529.105C364.004 534.675 365 541.956 365 549C365 562.177 361.722 580.87 379 584M224 524L224 525L230 526L224 524M311 524C311.572 528.239 312.944 530.483 317 532L311 524z"/>
<path style="fill:#ddb358; stroke:none;" d="M377 527C362.874 525.674 366 548.322 366 557C366 562.057 365.116 568.122 366.653 572.999C370.578 585.459 385.835 584.076 396 583L396 582L389 581L389 580L397 580L397 579C385.971 579 377.71 577.472 376.376 565C376.014 561.616 375.673 557.251 378.514 554.742C382.948 550.827 394.428 553 400 553L400 552L397 552L400 547C394.165 547 385.493 548.546 380.228 545.566C368.061 538.68 385.465 530.334 391 529L389 526L403 525C398.92 523.03 377.752 521.961 377 527M403 525L403 526L406 526L403 525z"/>
<path style="fill:#b1911b; stroke:none;" d="M230 527L232 529L232 530L230 534L222 530C232.867 540.236 232.978 567.649 221 577L221 578C229.219 577.731 227.618 572.749 232 568L230 534L233 534L234 527L230 527z"/>
<path style="fill:#ddb358; stroke:none;" d="M408 526L409 527L408 526M392 528L392 529L398 528L392 528M400 527L401 528L400 527z"/>
<path style="fill:#b1911b; stroke:none;" d="M128 528L129 529L128 528M381 528L382 529L381 528M384 528L384 529L387 529L384 528M463 528L463 559L464 559L463 528M100 529L100 530L104 530L100 529z"/>
<path style="fill:#ddb358; stroke:none;" d="M404 529L405 530L404 529z"/>
<path style="fill:#b1911b; stroke:none;" d="M235 530L239 543L238 543L235 537L232 560L236 560L236 544L237 544C237 554.273 240.206 569.055 233 577L233 578L235 584L239 584L236 593L239 594L240 594C240.041 578.68 241.634 563.379 240.961 548C240.686 541.72 240.651 533.745 235 530M303 530L304 531L303 530z"/>
<path style="fill:#b8555b; stroke:none;" d="M387 530.468C381.595 531.518 373.578 538.946 380.318 544.062C384.685 547.377 394.936 546.63 399.999 545.517C407.039 543.969 408.949 536.364 402.786 532.009C398.683 529.11 391.706 529.555 387 530.468z"/>
<path style="fill:#b1911b; stroke:none;" d="M200 532L201 533L200 532z"/>
<path style="fill:#070404; stroke:none;" d="M207.015 532.653C198.626 535.364 200 545.012 200 552C200 565.793 201.732 579.935 219.96 574.427C227.487 572.153 226 563.145 226 557C226 543.989 225.95 526.534 207.015 532.653z"/>
<path style="fill:#b1911b; stroke:none;" d="M317 532L317 533L344 534L317 532z"/>
<path style="fill:#070404; stroke:none;" d="M387.004 532.533C383.349 533.434 377.177 538.476 382.322 541.972C385.528 544.151 397.269 544.31 400.89 543.047C405.109 541.576 404.949 536.516 401.605 534.14C397.892 531.501 391.25 531.487 387.004 532.533M518.004 532.468C514.381 533.179 506.696 538.133 512.323 541.972C515.638 544.234 526.118 543.882 529.981 543.107C534.917 542.116 535.496 536.968 531.606 534.089C528.02 531.436 522.161 531.653 518.004 532.468z"/>
<path style="fill:#b1911b; stroke:none;" d="M136 533L136 534C137.96 534.653 138.554 535 136 535L136 536L140 535L140 534L136 533M311 533L312 534L311 533z"/>
<path style="fill:#ddb358; stroke:none;" d="M407 533L408 534L407 533M411 533L413 535L411 533M135 534L135 535L138 535L135 534z"/>
<path style="fill:#b1911b; stroke:none;" d="M234.333 534.667L234.667 535.333L234.333 534.667M344.667 534.333L345.333 534.667L344.667 534.333M199 535L200 536L199 535M346.667 535.333L347.333 535.667L346.667 535.333M349 536L350 537L349 536M350.667 537.333L351.333 537.667L350.667 537.333M352 538L353 539L352 538M101 539L102 540L101 539M353 539L354 540L353 539z"/>
<path style="fill:#070404; stroke:none;" d="M109.001 540.444C99.9887 542.028 98.4365 565.676 103.179 572.566C106.226 576.994 120.322 575.621 124.999 574.656C135.214 572.548 135.959 551.491 130.91 544.228C127.271 538.992 114.611 539.457 109.001 540.444z"/>
<path style="fill:#b1911b; stroke:none;" d="M319 540L319 541C328.147 541 335.842 540.344 344 545C339.826 537.246 326.565 540 319 540M354.333 540.667L354.667 541.333L354.333 540.667z"/>
<path style="fill:#070404; stroke:none;" d="M423 540L424 541L423 540z"/>
<path style="fill:#b1911b; stroke:none;" d="M507 541L507 546L512 546L512 545L507 541M355 542L356 546L357 546L355 542M536 542L534 545L537 546L536 542z"/>
<path style="fill:#ddb358; stroke:none;" d="M407 544L406 547L407 544z"/>
<path style="fill:#b1911b; stroke:none;" d="M344.333 545.667L344.667 546.333L344.333 545.667M357 546L357 571L358 571L357 546M345 547L344 573L345 573C346.674 565.968 347.825 553.733 345 547z"/>
<path style="fill:#ddb358; stroke:none;" d="M401 548L401 549L405 550L401 548M407 549L408 550L407 549M400 551L400 552L403 552L400 551z"/>
<path style="fill:#b1911b; stroke:none;" d="M507 556L510 554C507.604 553.425 507.513 553.525 507 556z"/>
<path style="fill:#b8555b; stroke:none;" d="M434 565L434 568L435 568L434 565z"/>
<path style="fill:#b1911b; stroke:none;" d="M376 568C378.661 578.978 387.379 579 397 579L397 580L389 580L389 581L396 582L396 583L380 584L380 585L417 585L417 578L384.005 575.972L376 568M356 571L356 574L357 574L356 571M476 572L480 577L476 572M199 573L202 576L199 573M343 573C334.628 579.382 322.04 577 312 577L312 578C317.699 578 343.19 581.123 343 573M101 575L103 578L101 575M131 575L132 576L131 575M355 575L356 576L355 575M511 575L514 577L514 576L511 575M172 576L173 577L172 576z"/>
<path style="fill:#b8555b; stroke:none;" d="M238.333 576.667L238.667 577.333L238.333 576.667z"/>
<path style="fill:#b1911b; stroke:none;" d="M354.333 576.667L354.667 577.333L354.333 576.667M375 576L376 577L375 576M467 576L468 577L467 576M203 577L203 578L206 578L203 577z"/>
<path style="fill:#070404; stroke:none;" d="M493 577L494 578L493 577z"/>
<path style="fill:#b1911b; stroke:none;" d="M207.667 578.333L208.333 578.667L207.667 578.333M216.667 578.333L217.333 578.667L216.667 578.333M353 578L354 579L353 578M439 578L440 579L439 578M453 578L456 580L456 579L453 578M352 579L353 580L352 579M350.667 580.333L351.333 580.667L350.667 580.333M349 581L350 582L349 581z"/>
<path style="fill:#ddb358; stroke:none;" d="M408.667 581.333L409.333 581.667L408.667 581.333z"/>
<path style="fill:#b1911b; stroke:none;" d="M346 582L346 583L349 583L346 582M222 584L228 590L231 589L231 585L222 584M344.667 583.333L345.333 583.667L344.667 583.333M451 584L451 585L455 584L451 584M304 584L304 585L307 585L304 584M308 584L309 585L308 584M340 584L340 585L343 585L340 584M228 591L229 592L228 591M228 593L222 598L222 599C225.734 598.574 229.163 597.294 228 593M237 595L233 602C235.826 600.163 237.947 598.506 237 595M219.667 599.333L220.333 599.667L219.667 599.333M224 604L224 605L228 605L224 604z"/>
</svg>
